<svg xmlns="http://www.w3.org/2000/svg" xmlns:xlink="http://www.w3.org/1999/xlink" version="1.1" x="0px" y="0px" viewBox="0 0 96 120" enable-background="new 0 0 96 96" xml:space="preserve"><circle fill="none" stroke="#000000" stroke-width="6" stroke-linecap="round" stroke-linejoin="round" cx="1878" cy="-979" r="24"/><polyline fill="none" stroke="#000000" stroke-width="6" stroke-linecap="round" stroke-linejoin="round" points="1866,-958   1878,-931 1890,-958 "/><circle fill="none" stroke="#000000" stroke-width="6" stroke-linecap="round" stroke-linejoin="round" cx="1878" cy="-986" r="3"/><path fill="none" stroke="#000000" stroke-width="6" stroke-linecap="round" stroke-linejoin="round" d="M1887-970c0,0,0-9-9-9  s-9,9-9,9"/><g><path d="M24,30c3.309,0,6-2.691,6-6s-2.691-6-6-6s-6,2.691-6,6S20.691,30,24,30z"/><path d="M15,57h16.146l5.171,10.342c0.525,1.051,1.585,1.659,2.686,1.659c0.451,0,0.909-0.103,1.339-0.317   c1.482-0.741,2.083-2.543,1.341-4.025l-6-12C35.175,51.642,34.136,51,33,51h-9V39h12c1.657,0,3-1.343,3-3v-6c0-1.657-1.343-3-3-3   s-3,1.343-3,3v3H21c-0.007,0-0.015,0.003-0.022,0.004c-1.26,0.01-2.413,0.814-2.824,2.048l-6,18   c-0.305,0.914-0.151,1.92,0.413,2.702S14.035,57,15,57z"/><path d="M72,30c3.309,0,6-2.691,6-6s-2.691-6-6-6s-6,2.691-6,6S68.691,30,72,30z"/><path d="M58.797,38.746c0.012,0.005,0.022,0.013,0.034,0.018C59.19,38.916,59.585,39,60,39h12v12h-9   c-1.136,0-2.175,0.642-2.683,1.658l-6,12c-0.741,1.482-0.141,3.284,1.341,4.025c0.431,0.215,0.889,0.317,1.339,0.317   c1.101,0,2.16-0.608,2.686-1.659L64.854,57H81c0.964,0,1.87-0.464,2.434-1.246s0.717-1.788,0.413-2.702l-6-18   c-0.411-1.233-1.557-2.039-2.821-2.049C75.016,33.003,75.01,33,75,33H63v-3c0-1.656-1.343-3-3-3c-1.657,0-3,1.343-3,3l0,6   c0,0.207,0.021,0.409,0.061,0.604C57.258,37.568,57.918,38.36,58.797,38.746z"/><path d="M81,60H69c-1.657,0-3,1.343-3,3s1.343,3,3,3h3v3c0,1.654-1.346,3-3,3H51V48h15c1.657,0,3-1.343,3-3s-1.343-3-3-3H30   c-1.657,0-3,1.343-3,3s1.343,3,3,3h15v24H27c-1.654,0-3-1.346-3-3v-3h3c1.657,0,3-1.343,3-3s-1.343-3-3-3H15c-1.657,0-3,1.343-3,3   s1.343,3,3,3h3v3c0,4.963,4.038,9,9,9h42c4.962,0,9-4.037,9-9v-3h3c1.657,0,3-1.343,3-3S82.656,60,81,60z"/></g><text x="0" y="111" fill="#000000" font-size="5px" font-weight="bold" font-family="'Helvetica Neue', Helvetica, Arial-Unicode, Arial, Sans-serif">Created by Yorlmar Campos</text><text x="0" y="116" fill="#000000" font-size="5px" font-weight="bold" font-family="'Helvetica Neue', Helvetica, Arial-Unicode, Arial, Sans-serif">from the Noun Project</text></svg>