<svg xmlns="http://www.w3.org/2000/svg" xmlns:xlink="http://www.w3.org/1999/xlink" version="1.1" x="0px" y="0px" viewBox="0 0 57.906 36.66875" enable-background="new 0 0 57.906 29.335" xml:space="preserve"><g><path fill="#000000" d="M57.907,25.335c0,1.024-0.391,2.047-1.172,2.829c-1.562,1.562-4.095,1.562-5.656,0L32.303,9.388   C31.408,8.493,30.218,8,28.953,8c-1.266,0-2.455,0.493-3.349,1.387L6.828,28.164c-1.562,1.562-4.095,1.562-5.657,0   c-1.562-1.562-1.562-4.095,0-5.657L19.948,3.73C22.352,1.325,25.551,0,28.953,0c3.401,0,6.601,1.325,9.006,3.73l18.775,18.776   C57.516,23.288,57.907,24.312,57.907,25.335z"/></g><text x="0" y="44.335" fill="#000000" font-size="5px" font-weight="bold" font-family="'Helvetica Neue', Helvetica, Arial-Unicode, Arial, Sans-serif">Created by Tim Neumann</text><text x="0" y="49.335" fill="#000000" font-size="5px" font-weight="bold" font-family="'Helvetica Neue', Helvetica, Arial-Unicode, Arial, Sans-serif">from the Noun Project</text></svg>