<svg xmlns="http://www.w3.org/2000/svg" xmlns:xlink="http://www.w3.org/1999/xlink" version="1.1" x="0px" y="0px" viewBox="0 0 100 125" enable-background="new 0 0 100 100" xml:space="preserve"><path fill="#000000" d="M67.858,52.221H29.859c-3.278,0-0.772,12.144,9.391,17.251l-5.494,10.586  c-0.497,0.936-0.142,2.096,0.793,2.592c0.283,0.151,0.593,0.225,0.897,0.225c0.684,0,1.346-0.37,1.694-1.018l5.698-10.986  c1.323,0.373,2.749,0.628,4.271,0.747c-0.001,0.027-0.008,0.053-0.008,0.08V83.83c0,1.059,0.859,1.918,1.917,1.918  c1.058,0,1.914-0.859,1.914-1.918V71.697c0-0.022-0.006-0.043-0.007-0.065c1.731-0.115,3.322-0.386,4.777-0.782l5.663,10.837  c0.344,0.653,1.011,1.027,1.702,1.027c0.296,0,0.602-0.071,0.884-0.219c0.941-0.489,1.301-1.646,0.812-2.586l-5.449-10.424  C69.716,64.386,70.887,52.221,67.858,52.221z M44.001,66.67c-4.909-0.965-9.738-4.652-10.231-10.139l4.55,0.161  c0.464,2.666,2.938,7.282,5.88,9.336C45.106,66.66,45.085,66.884,44.001,66.67z M36.326,48.9c-1.026-2.052-1.252-4.558-0.457-8.774  c3.191,11.168,20.966,4.33,20.966-5.696c2.51,3.647,2.51,10.825-0.91,14.47h11.283c1.365-2.05,2.283-5.315,2.276-8.545  c-0.007-3.764-1.902-7.319-4.329-10.142c-4.625-5.377-11.167-12.305-7.549-19.735c-2.48,1.732-6.319,4.794-7.15,9.139  c-1.025,5.355,1.699,10.211-1.025,14.471c-1.677,2.621-4.613,5.02-7.98,3.138c-4.155-2.325-2.04-8.721-0.085-11.593  C31.425,29.53,25.728,38.645,30.058,48.9H36.326z"/><text x="0" y="115" fill="#000000" font-size="5px" font-weight="bold" font-family="'Helvetica Neue', Helvetica, Arial-Unicode, Arial, Sans-serif">Created by Rutmer Zijlstra</text><text x="0" y="120" fill="#000000" font-size="5px" font-weight="bold" font-family="'Helvetica Neue', Helvetica, Arial-Unicode, Arial, Sans-serif">from the Noun Project</text></svg>