<svg xmlns="http://www.w3.org/2000/svg" xmlns:xlink="http://www.w3.org/1999/xlink" version="1.1" x="0px" y="0px" viewBox="0 0 100 125" enable-background="new 0 0 100 100" xml:space="preserve"><path d="M12.786,46.643h75.798c0.917,0,1.678-0.761,1.678-1.7V27.179c0-0.917-0.761-1.678-1.678-1.678H12.786  c-0.94,0-1.7,0.761-1.7,1.678v17.764C11.086,45.882,11.847,46.643,12.786,46.643z"/><path d="M90.419,50.692l-0.022-0.022l-0.134-0.224c-0.291-0.515-1.074-1.678-1.678-1.678H12.786c-0.694,0-1.835,1.812-1.969,2.081  v0.022L4.732,61.118c0,0.94,0.761,1.678,1.7,1.678h15.504v9.62c0,1.566,1.253,2.796,2.797,2.796s2.797-1.23,2.797-2.796v-9.62  h46.289v9.62c0,1.566,1.253,2.796,2.797,2.796c1.544,0,2.797-1.23,2.797-2.796v-9.62h15.504c0.94,0,1.7-0.739,1.7-1.678  L90.419,50.692z"/><text x="0" y="115" fill="#000000" font-size="5px" font-weight="bold" font-family="'Helvetica Neue', Helvetica, Arial-Unicode, Arial, Sans-serif">Created by Gerardo Martín Martínez</text><text x="0" y="120" fill="#000000" font-size="5px" font-weight="bold" font-family="'Helvetica Neue', Helvetica, Arial-Unicode, Arial, Sans-serif">from the Noun Project</text></svg>