<svg xmlns="http://www.w3.org/2000/svg" xmlns:xlink="http://www.w3.org/1999/xlink" version="1.1" x="0px" y="0px" viewBox="0 0 46.408 125" enable-background="new 0 0 46.408 100" xml:space="preserve"><path fill="#000000" d="M46.147,47.126c-0.202-0.233-0.497-0.367-0.805-0.367H34.209c-0.037-0.104-0.08-0.206-0.137-0.301  l0.737-1.142c0.089,0.015,0.178,0.024,0.267,0.024h0.003c1.024-0.027,1.91-0.827,2.45-1.938c0.265-0.562,0.397-1.138,0.397-1.675  c0.002-0.608-0.182-1.215-0.618-1.611l0.601-1.595c0.01,0,0.019,0.002,0.028,0.002c0.574-0.004,1.074-0.306,1.468-0.727  c0.396-0.426,0.702-0.996,0.876-1.654c0.096-0.365,0.142-0.726,0.142-1.071c-0.001-0.521-0.103-1.009-0.32-1.42  c-0.16-0.305-0.399-0.576-0.71-0.746l0.276-1.543c0.51-0.086,0.936-0.415,1.248-0.831c0.366-0.491,0.612-1.132,0.696-1.85  c0.02-0.171,0.029-0.34,0.029-0.503c-0.002-0.646-0.144-1.242-0.421-1.725c-0.204-0.357-0.505-0.667-0.888-0.828l0.086-1.33  c0.455-0.132,0.827-0.459,1.092-0.857c0.348-0.522,0.557-1.197,0.589-1.941c0.003-0.063,0.004-0.125,0.004-0.187  c-0.001-0.716-0.17-1.374-0.483-1.893c-0.215-0.358-0.523-0.663-0.905-0.827V17.37h1.216v-7.249H25.965  c1.602-0.946,2.676-2.689,2.676-4.684C28.641,2.434,26.207,0,23.204,0c-3.002,0-5.437,2.434-5.437,5.437  c0,1.995,1.075,3.738,2.676,4.684H4.477v7.249h1.215v1.22c-0.382,0.163-0.691,0.469-0.906,0.828  c-0.313,0.52-0.482,1.177-0.483,1.893c0,0.062,0.001,0.125,0.004,0.187c0.033,0.744,0.241,1.418,0.589,1.941  c0.265,0.398,0.638,0.726,1.092,0.857l0.086,1.33c-0.383,0.161-0.685,0.471-0.889,0.828c-0.277,0.482-0.419,1.079-0.42,1.725  c0,0.165,0.01,0.333,0.029,0.503c0.084,0.718,0.33,1.359,0.696,1.85c0.312,0.417,0.738,0.746,1.249,0.832l0.275,1.543  c-0.31,0.169-0.55,0.441-0.709,0.746c-0.217,0.412-0.32,0.899-0.32,1.42c0,0.346,0.046,0.707,0.142,1.071  c0.174,0.658,0.48,1.228,0.875,1.654c0.394,0.421,0.893,0.723,1.468,0.727c0.009,0,0.019-0.001,0.028-0.001l0.6,1.595  c-0.436,0.396-0.619,1.002-0.618,1.611c0,0.537,0.133,1.113,0.398,1.675c0.54,1.109,1.426,1.909,2.449,1.938  c0.09,0,0.18-0.01,0.27-0.025l0.737,1.141c-0.057,0.096-0.1,0.198-0.137,0.302H1.066c-0.309,0-0.603,0.134-0.805,0.367  c-0.202,0.233-0.294,0.543-0.25,0.849l2.131,15.065c0.074,0.525,0.524,0.916,1.055,0.916h17.591V100h4.833V63.955h17.59  c0.531,0,0.98-0.391,1.056-0.916l2.131-15.065C46.44,47.668,46.35,47.359,46.147,47.126z M27.726,49.141  c0.037-0.087,0.078-0.171,0.121-0.251h1.176c0.029,0.013,0.059,0.025,0.091,0.033c0.043,0.011,0.087,0.016,0.13,0.016  c0.075,0,0.147-0.019,0.214-0.048h0.021c-0.018,0.125-0.03,0.25-0.031,0.373c-0.001,0.206,0.029,0.413,0.09,0.611  c-0.008,0.018-0.013,0.035-0.021,0.053c-0.004,0.011-0.01,0.021-0.015,0.032l-0.543,0.301c-0.011-0.13-0.066-0.257-0.171-0.352  c-0.217-0.199-0.554-0.184-0.753,0.033l-0.555,0.607c-0.01-0.077-0.016-0.156-0.016-0.242C27.463,49.96,27.546,49.55,27.726,49.141   M30.745,41.974c0.026,0.004,0.053,0.006,0.078,0.006c0.26,0,0.487-0.191,0.526-0.456l0.055-0.375  c0.127,0.245,0.215,0.599,0.214,1.005c0,0.194-0.02,0.399-0.059,0.609c-0.101,0.524-0.318,0.974-0.565,1.266  c-0.049,0.058-0.099,0.108-0.146,0.152l0.083-0.334c0.071-0.286-0.102-0.575-0.388-0.646c-0.285-0.071-0.574,0.103-0.646,0.388  l-0.105,0.42c-0.126-0.246-0.213-0.599-0.213-1.004c0-0.193,0.02-0.399,0.06-0.608c0.1-0.525,0.317-0.974,0.564-1.267  c0.05-0.06,0.101-0.11,0.15-0.156l-0.059,0.397C30.253,41.661,30.454,41.932,30.745,41.974z M30.676,35.379  c0.052-0.553,0.239-1.036,0.47-1.35c0.048-0.065,0.096-0.119,0.143-0.168l-0.024,0.381c-0.02,0.293,0.203,0.547,0.496,0.566  c0.012,0.001,0.023,0.001,0.035,0.001c0.278,0,0.513-0.216,0.531-0.498l0.02-0.296l0.001,0.001c0.17,0.288,0.291,0.729,0.29,1.229  c0,0.105-0.006,0.212-0.016,0.322c-0.053,0.552-0.24,1.035-0.471,1.348c-0.051,0.07-0.103,0.128-0.153,0.18l0.052-0.354  c0.042-0.291-0.159-0.562-0.45-0.604c-0.291-0.043-0.562,0.159-0.604,0.45l-0.049,0.334c-0.169-0.288-0.287-0.726-0.286-1.221  C30.659,35.597,30.664,35.489,30.676,35.379 M31.172,28.331c0.022-0.568,0.19-1.069,0.409-1.395  c0.032-0.047,0.064-0.089,0.097-0.128l-0.011,0.478c-0.006,0.294,0.229,0.537,0.522,0.543c0.004,0,0.007,0,0.011,0  c0.289,0,0.526-0.231,0.533-0.522l0.009-0.46c0.019,0.027,0.038,0.053,0.057,0.083c0.192,0.314,0.33,0.798,0.329,1.341  c0,0.046-0.001,0.093-0.003,0.141c-0.022,0.565-0.19,1.067-0.409,1.393c-0.034,0.051-0.069,0.095-0.104,0.136l0.029-0.453  c0.02-0.293-0.203-0.547-0.496-0.566c-0.294-0.019-0.548,0.204-0.566,0.497l-0.031,0.466c-0.017-0.024-0.033-0.047-0.05-0.075  c-0.192-0.314-0.33-0.797-0.329-1.341C31.169,28.427,31.17,28.38,31.172,28.331 M31.319,21.385c0.006-0.575,0.163-1.086,0.376-1.417  c0.023-0.036,0.047-0.068,0.069-0.099v0.461c0,0.294,0.238,0.533,0.533,0.533c0.294,0,0.533-0.238,0.533-0.533v-0.495  c0.03,0.04,0.062,0.082,0.092,0.131c0.205,0.328,0.354,0.834,0.352,1.401v0.048c-0.006,0.568-0.163,1.08-0.376,1.411  c-0.025,0.039-0.051,0.074-0.076,0.107l0.01-0.458c0.006-0.294-0.228-0.538-0.522-0.543c-0.294-0.006-0.537,0.228-0.543,0.522  l-0.011,0.496c-0.028-0.038-0.058-0.078-0.085-0.123c-0.205-0.328-0.354-0.834-0.352-1.401  C31.319,21.42,31.319,21.406,31.319,21.385L31.319,21.385z M31.987,48.89h0.717c-0.018,0.023-0.031,0.046-0.049,0.069  c-0.235,0.307-0.511,0.541-0.777,0.704L31.987,48.89z M34.799,42.112c0.276-0.609,0.715-1.023,1.077-1.212l-0.084,0.223  c-0.104,0.275,0.036,0.583,0.312,0.687c0.062,0.023,0.125,0.034,0.188,0.034c0.216,0,0.419-0.132,0.499-0.346l0.04-0.107  c0.02,0.1,0.031,0.211,0.031,0.338c0.001,0.358-0.093,0.792-0.296,1.22c-0.25,0.548-0.632,0.943-0.97,1.153l0.107-0.167  c0.16-0.247,0.089-0.577-0.158-0.737c-0.247-0.16-0.577-0.089-0.736,0.158l-0.256,0.395c-0.029-0.118-0.05-0.256-0.05-0.418  C34.502,42.973,34.596,42.54,34.799,42.112 M37.36,35.375c0.131-0.501,0.368-0.924,0.625-1.2c0.04-0.043,0.08-0.081,0.12-0.117  L38.062,34.3c-0.051,0.29,0.142,0.566,0.432,0.618c0.031,0.006,0.062,0.009,0.094,0.009c0.254,0,0.478-0.181,0.523-0.439l0.058-0.32  c0.112,0.216,0.19,0.536,0.189,0.905c0,0.25-0.034,0.522-0.106,0.8c-0.132,0.501-0.369,0.924-0.626,1.199  c-0.086,0.093-0.172,0.165-0.254,0.223l0.12-0.319c0.104-0.275-0.036-0.583-0.312-0.687s-0.582,0.036-0.686,0.311l-0.121,0.322  c-0.074-0.202-0.121-0.459-0.12-0.748C37.252,35.924,37.287,35.653,37.36,35.375 M38.613,28.334  c0.062-0.548,0.256-1.024,0.489-1.333c0.027-0.036,0.054-0.068,0.081-0.099l-0.025,0.384c-0.02,0.293,0.204,0.547,0.497,0.566  c0.012,0.001,0.023,0.001,0.035,0.001c0.278,0,0.513-0.217,0.531-0.498l0.029-0.445c0.016,0.024,0.032,0.049,0.049,0.076  c0.163,0.279,0.278,0.707,0.277,1.192c0,0.125-0.007,0.252-0.022,0.381c-0.062,0.547-0.257,1.023-0.49,1.332  c-0.056,0.074-0.111,0.137-0.167,0.19l0.062-0.352c0.052-0.29-0.142-0.566-0.431-0.618c-0.29-0.052-0.566,0.141-0.618,0.431  l-0.06,0.333c-0.154-0.279-0.262-0.692-0.261-1.16C38.591,28.592,38.598,28.465,38.613,28.334 M39.083,21.37  c0.022-0.567,0.19-1.069,0.41-1.394c0.052-0.077,0.104-0.142,0.157-0.197v0.552c0,0.294,0.238,0.533,0.533,0.533  c0.294,0,0.532-0.238,0.532-0.533v-0.35c0.189,0.314,0.325,0.792,0.323,1.33c0,0.047-0.001,0.095-0.003,0.142  c-0.022,0.567-0.19,1.068-0.41,1.394c-0.04,0.06-0.081,0.111-0.122,0.158l0.03-0.472c0.02-0.293-0.203-0.547-0.497-0.565  c-0.293-0.02-0.547,0.203-0.565,0.497l-0.029,0.439c-0.011-0.017-0.022-0.033-0.034-0.051c-0.192-0.313-0.33-0.796-0.328-1.339  c0-0.044,0.001-0.091,0.003-0.14 M39.65,18.54c-0.433,0.14-0.788,0.46-1.043,0.844c-0.348,0.522-0.556,1.196-0.589,1.94  c-0.003,0.062-0.004,0.125-0.004,0.188c0.001,0.716,0.17,1.373,0.483,1.893c0.206,0.344,0.499,0.639,0.859,0.807l-0.089,1.376  c-0.408,0.133-0.754,0.421-1.019,0.774c-0.366,0.491-0.611,1.131-0.695,1.85l0,0c-0.02,0.17-0.029,0.339-0.029,0.503  c0.001,0.646,0.143,1.242,0.42,1.725c0.165,0.289,0.395,0.544,0.678,0.717l-0.287,1.604c-0.434,0.093-0.816,0.351-1.131,0.688  c-0.396,0.426-0.701,0.996-0.876,1.654c-0.096,0.364-0.142,0.725-0.142,1.071c0.001,0.521,0.103,1.008,0.32,1.42  c0.104,0.199,0.242,0.382,0.411,0.533L36.32,39.72c-0.012,0-0.023-0.002-0.035-0.002c-1.023,0.028-1.91,0.827-2.45,1.938l0,0  c-0.265,0.561-0.397,1.137-0.397,1.675c-0.002,0.526,0.137,1.051,0.455,1.44l-0.656,1.016c-0.174-0.056-0.354-0.083-0.533-0.083  c-0.755,0.011-1.507,0.407-2.13,1.054h-0.37l0.317-1.271c0.514-0.067,0.951-0.372,1.289-0.773c0.383-0.457,0.663-1.062,0.796-1.75  c0.053-0.275,0.078-0.547,0.078-0.809c-0.001-0.579-0.12-1.116-0.365-1.562c-0.167-0.307-0.412-0.577-0.723-0.748l0.214-1.465  c0.492-0.1,0.903-0.426,1.202-0.837c0.361-0.499,0.599-1.148,0.67-1.874c0.014-0.144,0.021-0.285,0.021-0.424  c-0.001-0.664-0.149-1.275-0.436-1.767c-0.196-0.338-0.479-0.63-0.833-0.798l0.093-1.429c0.447-0.134,0.814-0.46,1.075-0.854  c0.348-0.523,0.556-1.198,0.588-1.942c0.003-0.062,0.004-0.123,0.004-0.184c-0.001-0.717-0.17-1.375-0.484-1.894  c-0.221-0.37-0.542-0.684-0.939-0.843l0.026-1.284c0.418-0.151,0.76-0.472,1.001-0.852c0.339-0.536,0.532-1.223,0.543-1.977v-0.055  c-0.001-0.745-0.182-1.428-0.511-1.962c-0.236-0.385-0.577-0.71-0.998-0.863V17.37h6.819V18.54z M25.621,17.37h6.144v1.187  c-0.403,0.156-0.733,0.468-0.968,0.838c-0.34,0.536-0.532,1.223-0.543,1.977c0,0.011-0.001,0.029-0.001,0.055  c0.002,0.745,0.183,1.428,0.512,1.962c0.229,0.374,0.56,0.691,0.965,0.849l-0.025,1.275c-0.417,0.146-0.761,0.458-1.009,0.832  c-0.348,0.522-0.556,1.197-0.588,1.942c-0.002,0.059-0.004,0.121-0.004,0.184c0.001,0.717,0.17,1.374,0.483,1.895  c0.21,0.349,0.509,0.647,0.877,0.813l-0.093,1.413c-0.442,0.125-0.812,0.432-1.087,0.811c-0.361,0.499-0.599,1.148-0.67,1.875  c-0.014,0.142-0.021,0.284-0.021,0.424c0.001,0.663,0.149,1.274,0.436,1.767c0.176,0.304,0.422,0.573,0.728,0.747l-0.217,1.483  c-0.454,0.099-0.846,0.382-1.153,0.747c-0.383,0.458-0.661,1.062-0.795,1.751c-0.052,0.274-0.078,0.546-0.078,0.809  c0.001,0.579,0.121,1.116,0.365,1.561c0.146,0.267,0.35,0.507,0.605,0.677l-0.367,1.469c-0.107,0.007-0.212,0.024-0.315,0.047  h-3.181V17.37z M26.683,48.89c-0.187,0.479-0.284,0.961-0.284,1.416c0,0.405,0.072,0.791,0.237,1.131  c0.004,0.008,0.008,0.014,0.011,0.021l-0.157,0.172c-0.064,0.047-0.117,0.104-0.154,0.169l-0.714,0.781V48.89H26.683z M19.726,48.89  h1.062v3.692l-0.714-0.781c-0.038-0.066-0.09-0.124-0.156-0.17l-0.158-0.173c0.003-0.007,0.008-0.014,0.011-0.021  c0.165-0.341,0.238-0.727,0.238-1.132C20.009,49.852,19.912,49.369,19.726,48.89z M18.683,49.142  c0.18,0.408,0.262,0.818,0.261,1.164c0,0.086-0.006,0.166-0.016,0.242l-0.555-0.607c-0.198-0.217-0.535-0.232-0.752-0.034  c-0.104,0.095-0.16,0.222-0.17,0.352l-0.543-0.301c-0.005-0.011-0.01-0.021-0.015-0.032c-0.008-0.019-0.013-0.036-0.021-0.054  c0.06-0.198,0.09-0.404,0.089-0.61c0-0.123-0.013-0.248-0.03-0.373h0.021c0.067,0.03,0.139,0.049,0.214,0.049  c0.042,0,0.086-0.005,0.129-0.016c0.032-0.008,0.062-0.02,0.091-0.033h1.176C18.605,48.97,18.646,49.054,18.683,49.142z   M14.419,48.89l0.109,0.772c-0.267-0.164-0.541-0.397-0.776-0.704c-0.018-0.022-0.031-0.046-0.048-0.069H14.419z M15.477,43.847  l0.084,0.335c-0.049-0.045-0.098-0.094-0.147-0.153c-0.248-0.292-0.465-0.741-0.564-1.266c-0.041-0.21-0.059-0.416-0.059-0.609  c-0.001-0.408,0.086-0.762,0.213-1.007l0.055,0.376c0.039,0.265,0.267,0.456,0.526,0.456c0.026,0,0.052-0.002,0.078-0.006  c0.291-0.042,0.493-0.313,0.45-0.604l-0.058-0.396c0.05,0.045,0.1,0.096,0.15,0.156c0.247,0.292,0.465,0.741,0.564,1.266  c0.04,0.209,0.059,0.414,0.059,0.608c0.001,0.405-0.087,0.758-0.212,1.003l-0.105-0.419c-0.071-0.286-0.36-0.459-0.646-0.388  C15.58,43.272,15.406,43.562,15.477,43.847z M14.36,36.742l0.052,0.354c-0.051-0.052-0.103-0.11-0.154-0.181  c-0.23-0.313-0.418-0.796-0.47-1.349c-0.011-0.11-0.016-0.217-0.016-0.321c-0.001-0.499,0.12-0.941,0.29-1.229  c0-0.001,0.001-0.001,0.001-0.002l0.02,0.297c0.019,0.282,0.252,0.498,0.531,0.498c0.012,0,0.023,0,0.035-0.001  c0.293-0.019,0.516-0.273,0.497-0.566l-0.025-0.381c0.048,0.049,0.095,0.104,0.143,0.168c0.229,0.313,0.418,0.796,0.47,1.35  c0.011,0.108,0.015,0.215,0.015,0.321c0.001,0.495-0.117,0.933-0.286,1.221l-0.049-0.333c-0.042-0.291-0.312-0.493-0.604-0.45  C14.519,36.181,14.317,36.451,14.36,36.742z M13.795,29.942c-0.035-0.041-0.069-0.085-0.104-0.136  c-0.219-0.326-0.387-0.827-0.409-1.395c-0.002-0.048-0.003-0.094-0.003-0.139c-0.001-0.544,0.136-1.028,0.329-1.342  c0.019-0.03,0.038-0.057,0.057-0.084l0.009,0.461c0.006,0.291,0.244,0.522,0.533,0.522c0.003,0,0.007,0,0.011,0  c0.294-0.006,0.528-0.25,0.522-0.543l-0.01-0.478c0.032,0.039,0.063,0.081,0.096,0.128c0.219,0.325,0.387,0.827,0.41,1.395  c0.001,0.047,0.002,0.093,0.002,0.14c0.001,0.543-0.137,1.027-0.33,1.341c-0.016,0.027-0.033,0.05-0.049,0.074l-0.03-0.466  c-0.02-0.293-0.273-0.516-0.566-0.497c-0.294,0.02-0.517,0.273-0.497,0.566L13.795,29.942z M13.586,22.935  c-0.025-0.033-0.051-0.069-0.077-0.108c-0.213-0.331-0.37-0.842-0.375-1.417c0-0.019,0-0.033,0-0.042  c-0.001-0.567,0.146-1.073,0.352-1.401c0.031-0.049,0.062-0.092,0.093-0.132v0.496c0,0.293,0.239,0.532,0.533,0.532  c0.294,0,0.533-0.239,0.533-0.532V19.87c0.023,0.031,0.046,0.062,0.069,0.098c0.213,0.332,0.37,0.843,0.376,1.418v0.041  c0.001,0.567-0.146,1.073-0.352,1.401c-0.028,0.045-0.057,0.085-0.085,0.123l-0.01-0.497c-0.006-0.294-0.249-0.527-0.543-0.521  c-0.294,0.006-0.528,0.25-0.522,0.543L13.586,22.935z M17.815,42.195c-0.133-0.689-0.412-1.293-0.795-1.751  c-0.308-0.365-0.699-0.648-1.152-0.747l-0.217-1.483c0.305-0.173,0.551-0.442,0.727-0.747c0.287-0.492,0.435-1.104,0.436-1.767  c0-0.139-0.006-0.28-0.021-0.423c-0.071-0.726-0.308-1.376-0.67-1.875c-0.275-0.378-0.645-0.686-1.087-0.811l-0.092-1.413  c0.368-0.167,0.667-0.465,0.876-0.813c0.314-0.52,0.482-1.177,0.484-1.894c0-0.061-0.001-0.122-0.003-0.183v0  c-0.032-0.745-0.241-1.42-0.588-1.942c-0.249-0.374-0.592-0.686-1.009-0.832l-0.026-1.276c0.407-0.158,0.735-0.475,0.964-0.848  c0.33-0.535,0.51-1.217,0.512-1.962c0-0.019,0-0.036,0-0.051v-0.003c-0.011-0.753-0.204-1.441-0.543-1.977  c-0.234-0.37-0.564-0.682-0.967-0.838V17.37h6.145v29.389h-3.183c-0.103-0.023-0.207-0.04-0.313-0.047l-0.367-1.469  c0.255-0.17,0.459-0.41,0.604-0.677c0.244-0.445,0.364-0.982,0.365-1.561C17.894,42.741,17.868,42.47,17.815,42.195 M5.874,22.533  l0.03,0.472c-0.041-0.047-0.082-0.098-0.123-0.158c-0.219-0.325-0.387-0.827-0.41-1.394c-0.001-0.048-0.003-0.096-0.003-0.142  c-0.001-0.539,0.134-1.018,0.324-1.332v0.352c0,0.294,0.238,0.532,0.532,0.532c0.294,0,0.533-0.238,0.533-0.532V19.78  c0.052,0.055,0.104,0.12,0.157,0.197c0.219,0.325,0.387,0.827,0.411,1.394c0.001,0.047,0.002,0.095,0.002,0.142  c0.001,0.543-0.136,1.026-0.329,1.34c-0.011,0.018-0.022,0.033-0.034,0.049l-0.028-0.438c-0.019-0.294-0.273-0.517-0.566-0.498  S5.854,22.239,5.874,22.533z M6.879,29.111c-0.29,0.052-0.482,0.328-0.431,0.618l0.063,0.353c-0.056-0.053-0.112-0.116-0.168-0.19  c-0.234-0.309-0.427-0.785-0.49-1.333c-0.015-0.129-0.022-0.257-0.022-0.381c-0.001-0.485,0.114-0.912,0.277-1.192  c0.017-0.028,0.033-0.053,0.05-0.077l0.029,0.446c0.018,0.282,0.252,0.499,0.531,0.499c0.012,0,0.023,0,0.035-0.001  c0.293-0.019,0.516-0.272,0.497-0.566l-0.025-0.383c0.026,0.03,0.053,0.062,0.08,0.098c0.234,0.309,0.428,0.786,0.491,1.333  c0.015,0.129,0.021,0.256,0.021,0.38c0.001,0.468-0.106,0.881-0.26,1.16l-0.06-0.333C7.445,29.253,7.169,29.06,6.879,29.111z   M9.035,36.921L8.915,36.6c-0.104-0.275-0.411-0.415-0.687-0.311c-0.276,0.104-0.415,0.411-0.311,0.687l0.12,0.32  c-0.083-0.058-0.168-0.13-0.254-0.223c-0.258-0.275-0.495-0.698-0.626-1.2c-0.073-0.277-0.107-0.55-0.107-0.8  c0-0.37,0.077-0.689,0.189-0.906l0.057,0.321c0.046,0.258,0.271,0.439,0.524,0.439c0.031,0,0.062-0.003,0.094-0.009  c0.29-0.052,0.482-0.328,0.431-0.618l-0.043-0.243c0.04,0.036,0.08,0.073,0.12,0.117c0.257,0.276,0.495,0.699,0.626,1.201l0,0  c0.073,0.277,0.106,0.549,0.106,0.799C9.156,36.462,9.109,36.719,9.035,36.921z M11.854,43.75L11.6,43.355  c-0.159-0.247-0.489-0.318-0.736-0.158c-0.247,0.16-0.318,0.489-0.158,0.737l0.109,0.168c-0.339-0.21-0.722-0.605-0.972-1.154  c-0.203-0.428-0.296-0.861-0.296-1.22c0-0.126,0.012-0.238,0.031-0.338l0.041,0.108c0.08,0.214,0.283,0.346,0.499,0.346  c0.062,0,0.125-0.011,0.188-0.035c0.275-0.103,0.415-0.41,0.311-0.686L10.532,40.9c0.362,0.189,0.8,0.604,1.078,1.212  c0.202,0.427,0.295,0.86,0.295,1.219C11.904,43.494,11.885,43.631,11.854,43.75z M10.079,35.104  c-0.175-0.658-0.481-1.228-0.876-1.654c-0.314-0.337-0.697-0.594-1.131-0.688l-0.286-1.604c0.283-0.174,0.512-0.429,0.677-0.718  c0.277-0.482,0.419-1.079,0.42-1.725c0-0.164-0.01-0.332-0.029-0.502c-0.084-0.719-0.33-1.36-0.696-1.851  c-0.264-0.352-0.609-0.641-1.018-0.774L7.05,24.211c0.361-0.168,0.653-0.463,0.859-0.807c0.313-0.52,0.482-1.177,0.484-1.893  c0-0.061-0.001-0.123-0.004-0.186v0c-0.033-0.745-0.242-1.419-0.589-1.942C7.545,19,7.19,18.68,6.758,18.54v-1.17h6.82v1.171  c-0.42,0.152-0.762,0.479-0.999,0.864c-0.33,0.535-0.51,1.217-0.511,1.962c0,0.023,0,0.041,0,0.055  c0.01,0.753,0.203,1.44,0.542,1.976c0.241,0.381,0.583,0.701,1.002,0.853l0.026,1.283c-0.398,0.159-0.719,0.473-0.941,0.843  c-0.313,0.52-0.482,1.178-0.484,1.895c0,0.062,0.001,0.123,0.004,0.184c0.032,0.744,0.24,1.419,0.587,1.941  c0.261,0.394,0.628,0.72,1.076,0.854l0.093,1.428c-0.354,0.168-0.638,0.46-0.833,0.799c-0.286,0.492-0.434,1.103-0.436,1.767  c0,0.14,0.007,0.281,0.021,0.424c0.071,0.726,0.307,1.375,0.669,1.874c0.299,0.411,0.709,0.737,1.203,0.837l0.214,1.464  c-0.311,0.171-0.557,0.441-0.724,0.748c-0.245,0.446-0.364,0.983-0.365,1.562c0,0.263,0.026,0.534,0.078,0.809  c0.133,0.689,0.413,1.293,0.795,1.75c0.338,0.402,0.776,0.708,1.29,0.773l0.318,1.271h-0.371c-0.624-0.647-1.375-1.043-2.13-1.054  c-0.178,0-0.359,0.026-0.533,0.083l-0.656-1.016c0.319-0.389,0.457-0.914,0.456-1.44c0-0.537-0.133-1.113-0.398-1.675  c-0.541-1.111-1.426-1.911-2.45-1.938c-0.012,0-0.023,0.001-0.035,0.001l-0.599-1.593c0.168-0.151,0.307-0.334,0.411-0.533  c0.217-0.412,0.319-0.899,0.32-1.42C10.22,35.829,10.174,35.468,10.079,35.104 M4.122,61.824L2.292,48.89h4.88l1.83,12.934H4.122z   M11.156,61.824L9.326,48.89h3.129c0.124,0.248,0.276,0.492,0.458,0.726c0.51,0.641,1.136,1.101,1.792,1.292l1.544,10.916H11.156z   M18.402,61.824l-1.417-10.012c0.404,0.332,0.869,0.535,1.372,0.549c0.176,0,0.354-0.031,0.525-0.094l0.355,0.197l0.565,0.618  h-0.525c-0.294,0-0.533,0.238-0.533,0.532c0,0.295,0.239,0.533,0.533,0.533h1.5l0.011,0.012v7.664H18.402z M25.621,61.824V54.16  l0.01-0.012h1.5c0.294,0,0.532-0.238,0.532-0.533c0-0.294-0.238-0.532-0.532-0.532h-0.525l0.564-0.618l0.356-0.196  c0.17,0.062,0.348,0.093,0.521,0.093h0.003c0.503-0.015,0.967-0.217,1.371-0.549l-1.416,10.012H25.621z M35.252,61.824h-5.094  l1.544-10.916c0.655-0.191,1.281-0.652,1.792-1.292c0.182-0.234,0.334-0.479,0.459-0.727h3.129L35.252,61.824z M42.285,61.824h-4.88  l1.829-12.934h4.881L42.285,61.824z"/><text x="0" y="115" fill="#000000" font-size="5px" font-weight="bold" font-family="'Helvetica Neue', Helvetica, Arial-Unicode, Arial, Sans-serif">Created by Steve Cardwell</text><text x="0" y="120" fill="#000000" font-size="5px" font-weight="bold" font-family="'Helvetica Neue', Helvetica, Arial-Unicode, Arial, Sans-serif">from the Noun Project</text></svg>