<?xml version="1.0" encoding="UTF-8" standalone="no"?>
<svg width="15px" height="8px" viewBox="0 0 15 8" version="1.1" xmlns="http://www.w3.org/2000/svg" xmlns:xlink="http://www.w3.org/1999/xlink" xmlns:sketch="http://www.bohemiancoding.com/sketch/ns">
    <!-- Generator: Sketch 3.3.2 (12043) - http://www.bohemiancoding.com/sketch -->
    <title>Slice 1</title>
    <desc>Created with Sketch.</desc>
    <defs></defs>
    <g id="Page-1" stroke="none" stroke-width="1" fill="none" fill-rule="evenodd" sketch:type="MSPage">
        <g id="noun_119200_cc" sketch:type="MSLayerGroup" fill="#000000">
            <path d="M14.6139351,7.04256011 C14.2233486,7.43314663 13.5899582,7.43314663 13.1996218,7.04256011 L8.5045817,2.34752004 C8.28078212,2.12372046 7.98321621,2.00044315 7.66689613,2.00044315 C7.350326,2.00044315 7.05301014,2.12372046 6.82946062,2.34726998 L2.13442055,7.04256011 C1.74383402,7.43314663 1.11044371,7.43314663 0.719857187,7.04256011 C0.329270662,6.65197358 0.329270662,6.01858327 0.719857187,5.62799674 L5.41514731,0.932706618 C6.01628048,0.331323397 6.81620768,0 7.66689613,0 C8.51733453,0 9.31751179,0.331323397 9.91889501,0.932706618 L14.613685,5.62774669 C14.8092283,5.82329001 14.907,6.07934673 14.907,6.3351534 C14.907,6.59121012 14.8092283,6.84701679 14.6139351,7.04256011 Z" id="Shape" sketch:type="MSShapeGroup"></path>
        </g>
    </g>
</svg>